<?xml version="1.0" encoding="UTF-8"?>
<svg id="Layer_2" data-name="Layer 2" xmlns="http://www.w3.org/2000/svg" viewBox="0 0 232.55 172.63">
  <defs>
    <style>
      .cls-1 {
        fill: #fff;
      }
    </style>
  </defs>
  <g id="Layer_1-2" data-name="Layer 1">
    <g>
      <path class="cls-1" d="M160.24,119.28c-5.15.64-8.8,5.34-8.16,10.49.64,5.15,5.34,8.8,10.49,8.16,5.15-.64,8.8-5.34,8.16-10.49-.64-5.15-5.34-8.8-10.49-8.16Z"/>
      <path class="cls-1" d="M199.6,71.27c0-25.47,7.48-32.95,32.95-32.95-25.47,0-32.95-7.48-32.95-32.95,0,25.47-7.48,32.95-32.95,32.95,25.47,0,32.95,7.48,32.95,32.95Z"/>
      <path class="cls-1" d="M146.21,84.57h-33.35l-38.28-62.79c18.88-3.88,44.86,5.78,55,22.42l20.19,31.6,17.64-11.27-20.01-31.33C129.12,3.4,81.9-9.47,53.73,7.7l-8.94,5.45,13.38,21.94c-10.75.74-21.09,4-30.13,9.63C13.91,53.52,4.61,66.99,1.83,82.65l-1.83,10.31,95.28,16.9v62.77h117.51v-21.48c0-36.71-29.86-66.57-66.57-66.57ZM39.11,62.49c9.29-5.79,20.7-7.87,32.16-5.92l18.99,31.14-64.34-11.41c2.95-5.49,7.44-10.22,13.19-13.81ZM191.85,151.7h-75.64v-46.19h30c25.17,0,45.64,20.47,45.64,45.64v.55Z"/>
    </g>
  </g>
</svg>