<?xml version="1.0" encoding="UTF-8"?>
<svg id="Layer_2" data-name="Layer 2" xmlns="http://www.w3.org/2000/svg" viewBox="0 0 381.8 58.66">
  <defs>
    <style>
      .cls-1 {
        fill: #4c12ef;
      }
    </style>
  </defs>
  <g id="Layer_1-2" data-name="Layer 1">
    <g>
      <g>
        <path class="cls-1" d="M53.85,40.08c-1.73.22-2.96,1.79-2.74,3.52.22,1.73,1.79,2.96,3.52,2.74,1.73-.22,2.96-1.79,2.74-3.52-.22-1.73-1.79-2.96-3.52-2.74Z"/>
        <path class="cls-1" d="M67.08,23.95c0-8.56,2.51-11.07,11.07-11.07-8.56,0-11.07-2.51-11.07-11.07,0,8.56-2.51,11.07-11.07,11.07,8.56,0,11.07,2.51,11.07,11.07Z"/>
        <path class="cls-1" d="M49.14,28.42h-11.21L25.06,7.32c6.34-1.3,15.07,1.94,18.48,7.53l6.78,10.62,5.93-3.79-6.73-10.53C43.39,1.14,27.52-3.18,18.06,2.59l-3,1.83,4.5,7.37c-3.61.25-7.09,1.34-10.13,3.24-4.75,2.96-7.88,7.48-8.81,12.75l-.61,3.46,32.02,5.68v21.1h39.49v-7.22c0-12.34-10.04-22.37-22.37-22.37ZM13.14,21c3.12-1.94,6.96-2.64,10.81-1.99l6.38,10.46-21.62-3.84c.99-1.84,2.5-3.44,4.43-4.64ZM64.47,50.98h-25.42v-15.52h10.08c8.46,0,15.34,6.88,15.34,15.34v.19Z"/>
      </g>
      <g>
        <path class="cls-1" d="M82.67,13.1h18.64c9.02,0,14.46,4.72,14.46,12.4,0,4.78-2.18,8.29-6.23,10.04,4.42,1.45,6.78,4.9,6.78,9.98,0,7.93-5.32,12.34-15.01,12.34h-18.64V13.1ZM92.47,21.69v9.74h7.81c3.51,0,5.45-1.75,5.45-4.96s-1.88-4.78-5.45-4.78h-7.81ZM92.47,39.66v9.62h8.29c3.63,0,5.51-1.63,5.51-4.96,0-3.03-1.94-4.66-5.51-4.66h-8.29Z"/>
        <path class="cls-1" d="M120.48,48.98c0-5.57,3.93-9.02,11.19-9.56l8.47-.67v-.48c0-2.97-1.82-4.54-5.14-4.54-3.93,0-6.05,1.51-6.05,4.24h-7.75c0-6.84,5.63-11.32,14.28-11.32s13.74,4.9,13.74,13.55v17.67h-8.23l-.61-3.99c-.97,2.78-4.96,4.78-9.5,4.78-6.41,0-10.41-3.75-10.41-9.68ZM140.21,46.56v-1.63l-4.72.42c-4.05.36-5.51,1.27-5.51,3.21,0,2.18,1.33,3.21,4.18,3.21,3.57,0,6.05-1.75,6.05-5.2Z"/>
        <path class="cls-1" d="M155.88,57.87V12.25h9.32v26.26l9.8-10.89h11.68l-11.38,11.98,11.01,18.27h-10.77l-6.78-11.32-3.57,3.75v7.56h-9.32Z"/>
        <path class="cls-1" d="M188,48.98c0-5.57,3.93-9.02,11.19-9.56l8.47-.67v-.48c0-2.97-1.82-4.54-5.14-4.54-3.93,0-6.05,1.51-6.05,4.24h-7.75c0-6.84,5.63-11.32,14.28-11.32s13.74,4.9,13.74,13.55v17.67h-8.23l-.61-3.99c-.97,2.78-4.96,4.78-9.5,4.78-6.41,0-10.41-3.75-10.41-9.68ZM207.73,46.56v-1.63l-4.72.42c-4.05.36-5.51,1.27-5.51,3.21,0,2.18,1.33,3.21,4.18,3.21,3.57,0,6.05-1.75,6.05-5.2Z"/>
        <path class="cls-1" d="M223.4,57.87v-30.25h8.71l.61,3.15c1.51-2.12,4.48-4.11,8.83-4.11s7.44,2.12,9.2,5.32c1.57-3.21,5.14-5.32,9.5-5.32,7.81,0,11.68,4.54,11.68,11.44v19.79h-9.32v-17.18c0-3.81-2-5.63-4.96-5.63-2.66,0-5.32,1.45-5.32,6.6v16.22h-9.32v-17.18c0-3.75-1.94-5.57-4.9-5.57-2.66,0-5.39,1.45-5.39,6.54v16.22h-9.32Z"/>
        <path class="cls-1" d="M276.95,42.69c0-9.44,6.35-16.04,15.49-16.04s15.43,6.23,15.43,16.1v2.36l-21.96.12c.54,3.99,2.78,5.87,6.9,5.87,3.51,0,5.99-1.27,6.66-3.45h8.53c-1.09,6.72-7.08,11.01-15.37,11.01-9.14,0-15.67-6.66-15.67-15.97ZM286.02,39.48h12.59c0-3.21-2.36-5.26-6.11-5.26s-5.75,1.63-6.47,5.26Z"/>
        <path class="cls-1" d="M326.44,57.87l15.97-44.78h9.56l15.91,44.78h-10.41l-3.15-9.44h-14.46l-3.21,9.44h-10.23ZM342.72,40.21h8.83l-3.21-9.56c-.48-1.51-1.03-3.27-1.21-4.36-.18,1.03-.67,2.72-1.21,4.36l-3.21,9.56Z"/>
        <path class="cls-1" d="M371.21,17.58c0-2.96,2.36-5.26,5.32-5.26s5.26,2.3,5.26,5.26-2.36,5.32-5.26,5.32-5.32-2.36-5.32-5.32ZM371.94,27.62h9.32v30.25h-9.32v-30.25Z"/>
      </g>
    </g>
  </g>
</svg>