<?xml version="1.0" encoding="UTF-8"?>
<svg id="Layer_2" data-name="Layer 2" xmlns="http://www.w3.org/2000/svg" viewBox="0 0 338.01 153.35">
  <defs>
    <style>
      .cls-1 {
        font-family: Satoshi-Black, Satoshi;
        font-size: 66.67px;
        font-weight: 800;
      }

      .cls-2 {
        letter-spacing: -.02em;
      }
    </style>
  </defs>
  <g id="Layer_1-2" data-name="Layer 1">
    <g>
      <g>
        <path d="M184.64,51.42c-2.22.28-3.79,2.3-3.52,4.52.28,2.22,2.3,3.79,4.52,3.52,2.22-.28,3.79-2.3,3.52-4.52-.28-2.22-2.3-3.79-4.52-3.52Z"/>
        <path d="M201.6,30.73c0-10.98,3.22-14.21,14.21-14.21-10.98,0-14.21-3.22-14.21-14.21,0,10.98-3.22,14.21-14.21,14.21,10.98,0,14.21,3.22,14.21,14.21Z"/>
        <path d="M178.59,36.46h-14.38l-16.51-27.07c8.14-1.67,19.34,2.49,23.71,9.67l8.7,13.62,7.6-4.86-8.63-13.51c-7.87-12.85-28.23-18.4-40.38-11l-3.85,2.35,5.77,9.46c-4.63.32-9.09,1.72-12.99,4.15-6.09,3.79-10.1,9.6-11.3,16.35l-.79,4.44,41.08,7.29v27.06h50.66v-9.26c0-15.83-12.88-28.7-28.7-28.7ZM132.41,26.94c4.01-2.49,8.92-3.39,13.87-2.55l8.19,13.42-27.74-4.92c1.27-2.37,3.21-4.41,5.69-5.95ZM198.26,65.4h-32.61v-19.91h12.94c10.85,0,19.68,8.83,19.68,19.68v.24Z"/>
      </g>
      <text class="cls-1" transform="translate(0 136.28)"><tspan x="0" y="0">Ba</tspan><tspan class="cls-2" x="81.94" y="0">k</tspan><tspan x="118.74" y="0">ame Ai</tspan></text>
    </g>
  </g>
</svg>